<?xml version="1.0" encoding="utf-8"?>
<!-- Generator: Adobe Illustrator 16.0.0, SVG Export Plug-In . SVG Version: 6.00 Build 0)  -->
<!DOCTYPE svg PUBLIC "-//W3C//DTD SVG 1.1//EN" "http://www.w3.org/Graphics/SVG/1.1/DTD/svg11.dtd">
<svg version="1.1" id="Layer_1" xmlns="http://www.w3.org/2000/svg" xmlns:xlink="http://www.w3.org/1999/xlink" x="0px" y="0px"
	 width="294px" height="25px" viewBox="0 0 294 25" enable-background="new 0 0 294 25" xml:space="preserve">
<g>
	<path fill="#FFFFFF" d="M16.897,18.71h-3.785V5.21H6.151v13.5H2.366V1.905h14.531V18.71z"/>
	<path fill="#FFFFFF" d="M24.524,17.314h-0.047v6.914h-3.703V6.71h3.703v1.805h0.047c0.914-1.398,2.199-2.098,3.855-2.098
		c1.555,0,2.756,0.533,3.604,1.6s1.271,2.518,1.271,4.354c0,2-0.494,3.605-1.482,4.816s-2.303,1.815-3.943,1.815
		C26.384,19.003,25.282,18.439,24.524,17.314z M24.419,12.394v0.961c0,0.828,0.219,1.504,0.656,2.026s1.012,0.785,1.723,0.785
		c0.844,0,1.498-0.326,1.963-0.979c0.465-0.652,0.697-1.576,0.697-2.771c0-2.109-0.82-3.164-2.461-3.164
		c-0.758,0-1.377,0.287-1.857,0.861C24.66,10.688,24.419,11.448,24.419,12.394z"/>
	<path fill="#FFFFFF" d="M41.784,19.003c-2,0-3.572-0.562-4.717-1.683c-1.145-1.12-1.717-2.643-1.717-4.563
		c0-1.984,0.594-3.537,1.781-4.658s2.793-1.682,4.816-1.682c1.992,0,3.555,0.561,4.688,1.682c1.133,1.121,1.699,2.604,1.699,4.447
		c0,1.992-0.584,3.565-1.752,4.724C45.414,18.426,43.815,19.003,41.784,19.003z M41.877,9.253c-0.875,0-1.555,0.301-2.039,0.902
		c-0.484,0.601-0.727,1.453-0.727,2.555c0,2.306,0.93,3.457,2.789,3.457c1.773,0,2.66-1.185,2.66-3.551
		C44.561,10.374,43.667,9.253,41.877,9.253z"/>
	<path fill="#FFFFFF" d="M63.66,23.081h-3.023V18.71h-8.074v4.371h-2.977v-6.983h1.066c1.695-2.656,2.59-5.786,2.684-9.388h8.426
		v9.388h1.898V23.081z M58.058,16.098V9.3h-1.84c-0.18,2.531-0.836,4.798-1.969,6.798H58.058z"/>
	<path fill="#FFFFFF" d="M76.196,18.71h-3.504v-1.724h-0.047c-0.804,1.345-1.996,2.017-3.574,2.017c-1.164,0-2.08-0.33-2.748-0.989
		c-0.668-0.66-1.002-1.541-1.002-2.644c0-2.328,1.379-3.672,4.137-4.031l3.257-0.434c0-1.313-0.71-1.969-2.132-1.969
		c-1.43,0-2.789,0.426-4.078,1.277V7.425c0.516-0.266,1.221-0.5,2.115-0.703c0.894-0.203,1.709-0.305,2.443-0.305
		c3.421,0,5.132,1.707,5.132,5.121L76.196,18.71L76.196,18.71z M72.716,13.835v-0.81l-2.179,0.281
		c-1.203,0.156-1.805,0.699-1.805,1.629c0,0.422,0.146,0.769,0.439,1.037c0.293,0.27,0.689,0.404,1.189,0.404
		c0.695,0,1.262-0.24,1.699-0.721C72.497,15.178,72.716,14.568,72.716,13.835z"/>
	<path fill="#FFFFFF" d="M98.261,18.71H93.89l-3.867-6h-0.047v6h-3.645v-6h-0.047l-3.844,6h-4.371l4.559-6.293L78.187,6.71h4.348
		l3.75,5.684h0.047V6.71h3.645v5.684h0.047l3.75-5.684h4.336l-4.441,5.707L98.261,18.71z"/>
	<path fill="#FFFFFF" d="M110.271,18.71h-3.504v-1.724h-0.047c-0.805,1.345-1.996,2.017-3.574,2.017c-1.164,0-2.08-0.33-2.748-0.989
		c-0.668-0.66-1.002-1.541-1.002-2.644c0-2.328,1.379-3.672,4.137-4.031l3.258-0.434c0-1.313-0.711-1.969-2.133-1.969
		c-1.43,0-2.789,0.426-4.078,1.277V7.425c0.516-0.266,1.221-0.5,2.115-0.703c0.894-0.203,1.709-0.305,2.443-0.305
		c3.422,0,5.133,1.707,5.133,5.121V18.71L110.271,18.71z M106.79,13.835v-0.81l-2.18,0.281c-1.203,0.156-1.805,0.699-1.805,1.629
		c0,0.422,0.146,0.769,0.439,1.037c0.293,0.27,0.689,0.404,1.189,0.404c0.695,0,1.262-0.24,1.699-0.721
		C106.569,15.175,106.79,14.568,106.79,13.835z"/>
	<path fill="#FFFFFF" d="M132.567,18.71h-3.363v-7.852c-0.305,0.617-0.633,1.188-0.984,1.711l-4.078,6.141h-3.504v-12h3.387v7.604
		c0.25-0.522,0.523-1.012,0.82-1.464l4.078-6.141h3.645L132.567,18.71L132.567,18.71z"/>
	<path fill="#FFFFFF" d="M146.884,17.314h-0.047v6.914h-3.703V6.71h3.703v1.805h0.047c0.914-1.398,2.199-2.098,3.854-2.098
		c1.556,0,2.757,0.533,3.604,1.6c0.849,1.067,1.271,2.518,1.271,4.354c0,2-0.493,3.605-1.481,4.816
		c-0.987,1.211-2.303,1.815-3.942,1.815C148.743,19.003,147.643,18.439,146.884,17.314z M146.778,12.394v0.961
		c0,0.828,0.219,1.504,0.656,2.026s1.011,0.785,1.723,0.785c0.844,0,1.497-0.326,1.963-0.979c0.465-0.652,0.696-1.576,0.696-2.771
		c0-2.109-0.819-3.164-2.461-3.164c-0.758,0-1.377,0.287-1.856,0.861C147.019,10.688,146.778,11.448,146.778,12.394z"/>
	<path fill="#FFFFFF" d="M169.206,13.766h-7.828c0.125,1.741,1.224,2.612,3.293,2.612c1.32,0,2.479-0.313,3.479-0.938v2.672
		c-1.108,0.595-2.551,0.892-4.323,0.892c-1.938,0-3.441-0.537-4.513-1.61c-1.07-1.074-1.604-2.572-1.604-4.495
		c0-1.992,0.578-3.57,1.733-4.734C160.6,7,162.021,6.418,163.71,6.418c1.75,0,3.104,0.52,4.062,1.559s1.436,2.449,1.436,4.23
		L169.206,13.766L169.206,13.766z M165.771,11.491c0-1.719-0.694-2.578-2.086-2.578c-0.594,0-1.106,0.246-1.541,0.738
		c-0.434,0.492-0.696,1.105-0.791,1.84H165.771z"/>
	<path fill="#FFFFFF" d="M187.346,18.71h-3.457V9.37c-0.078,0.438-0.285,1.176-0.621,2.215l-2.332,7.125h-3.259l-2.331-7.125
		c-0.384-1.172-0.591-1.902-0.621-2.191v9.316h-2.906v-12h4.875l2.272,6.845c0.353,1.055,0.548,1.766,0.586,2.133
		c0.056-0.353,0.255-1.056,0.599-2.109l2.25-6.867h4.945V18.71z"/>
	<path fill="#FFFFFF" d="M196.587,19.003c-2,0-3.571-0.562-4.717-1.683c-1.146-1.12-1.718-2.643-1.718-4.563
		c0-1.984,0.595-3.537,1.781-4.658c1.188-1.121,2.793-1.682,4.816-1.682c1.992,0,3.555,0.561,4.688,1.682
		c1.134,1.121,1.699,2.604,1.699,4.447c0,1.992-0.584,3.565-1.752,4.724C200.217,18.426,198.618,19.003,196.587,19.003z
		 M196.682,9.253c-0.875,0-1.556,0.301-2.039,0.902c-0.484,0.601-0.728,1.453-0.728,2.555c0,2.306,0.931,3.457,2.789,3.457
		c1.772,0,2.66-1.185,2.66-3.551C199.364,10.374,198.471,9.253,196.682,9.253z"/>
	<path fill="#FFFFFF" d="M217.516,18.71H213.8v-5.017h-4.147v5.017h-3.703v-12h3.703v4.441h4.147V6.71h3.716V18.71z"/>
	<path fill="#FFFFFF" d="M230.018,9.522h-3.211v9.188h-3.728V9.522h-3.233V6.71h10.172V9.522z"/>
	<path fill="#FFFFFF" d="M249.759,5.034h-6.223V18.71h-3.785V1.905h10.008V5.034L249.759,5.034z"/>
	<path fill="#FFFFFF" d="M252.439,18.71V1.905h10.816V5.01h-7.031v3.668h3.246c1.797,0,3.187,0.416,4.166,1.248
		c0.98,0.832,1.471,1.982,1.471,3.451c0,1.688-0.521,2.998-1.563,3.932c-1.043,0.935-2.521,1.4-4.437,1.4L252.439,18.71
		L252.439,18.71z M256.227,11.433v4.512h2.215c1.772,0,2.66-0.773,2.66-2.32c0-1.461-0.849-2.191-2.543-2.191L256.227,11.433
		L256.227,11.433z"/>
	<path fill="#FFFFFF" d="M285.204,23.292h-3.328V18.71h-13.617V1.905h3.785v13.57h6.961V1.905h3.797v13.57h2.402V23.292z"/>
	<path fill="#FFFFFF" d="M290.395,18.979c-0.625,0-1.142-0.188-1.547-0.567c-0.406-0.38-0.609-0.839-0.609-1.377
		c0-0.563,0.205-1.022,0.615-1.384c0.41-0.359,0.924-0.539,1.541-0.539c0.625,0,1.137,0.183,1.535,0.545
		c0.397,0.363,0.598,0.822,0.598,1.378c0,0.563-0.197,1.026-0.592,1.396C291.54,18.797,291.025,18.979,290.395,18.979z
		 M292.314,1.905l-0.457,11.578h-3l-0.434-11.578H292.314z"/>
</g>
</svg>
