<?xml version="1.0" encoding="utf-8"?>
<!-- Generator: Adobe Illustrator 16.0.0, SVG Export Plug-In . SVG Version: 6.00 Build 0)  -->
<!DOCTYPE svg PUBLIC "-//W3C//DTD SVG 1.1//EN" "http://www.w3.org/Graphics/SVG/1.1/DTD/svg11.dtd">
<svg version="1.1" id="Layer_1" xmlns="http://www.w3.org/2000/svg" xmlns:xlink="http://www.w3.org/1999/xlink" x="0px" y="0px"
	 width="218px" height="40px" viewBox="0 0 218 40" enable-background="new 0 0 218 40" xml:space="preserve">
<g>
	<g>
		<path d="M6.77,12.654v5.789H2.984V1.639h5.93c4.234,0,6.352,1.785,6.352,5.355c0,1.688-0.607,3.053-1.822,4.096
			s-2.838,1.564-4.869,1.564H6.77z M6.77,4.545v5.238h1.488c2.016,0,3.023-0.883,3.023-2.648c0-1.727-1.008-2.59-3.023-2.59H6.77z"
			/>
		<path d="M27.838,13.498H20.01c0.125,1.742,1.223,2.613,3.293,2.613c1.32,0,2.48-0.313,3.48-0.938v2.672
			c-1.109,0.594-2.551,0.891-4.324,0.891c-1.938,0-3.441-0.537-4.512-1.611s-1.605-2.572-1.605-4.494
			c0-1.992,0.578-3.57,1.734-4.734s2.578-1.746,4.266-1.746c1.75,0,3.104,0.52,4.061,1.559s1.436,2.449,1.436,4.23V13.498z
			 M24.404,11.225c0-1.719-0.695-2.578-2.086-2.578c-0.594,0-1.107,0.246-1.541,0.738s-0.697,1.105-0.791,1.84H24.404z"/>
		<path d="M45.976,18.443h-3.457v-9.34c-0.078,0.438-0.285,1.176-0.621,2.215l-2.332,7.125h-3.258l-2.332-7.125
			c-0.383-1.172-0.59-1.902-0.621-2.191v9.316h-2.906v-12h4.875l2.273,6.844c0.352,1.055,0.547,1.766,0.586,2.133
			c0.055-0.352,0.254-1.055,0.598-2.109l2.25-6.867h4.945V18.443z"/>
		<path d="M55.22,18.736c-2,0-3.572-0.561-4.717-1.682s-1.717-2.643-1.717-4.564c0-1.984,0.594-3.537,1.781-4.658
			S53.36,6.15,55.384,6.15c1.992,0,3.556,0.561,4.688,1.682s1.699,2.604,1.699,4.447c0,1.992-0.584,3.566-1.752,4.723
			C58.851,18.158,57.251,18.736,55.22,18.736z M55.313,8.986c-0.875,0-1.555,0.301-2.039,0.902s-0.727,1.453-0.727,2.555
			c0,2.305,0.93,3.457,2.789,3.457c1.773,0,2.66-1.184,2.66-3.551C57.997,10.107,57.103,8.986,55.313,8.986z"/>
		<path d="M76.147,18.443h-3.715v-5.016h-4.148v5.016h-3.703v-12h3.703v4.441h4.148V6.443h3.715V18.443z"/>
		<path d="M88.649,9.256h-3.211v9.188h-3.727V9.256h-3.234V6.443h10.172V9.256z"/>
		<path d="M107.595,18.584v5.426h-3.457v-5.426h-0.574c-1.953,0-3.492-0.555-4.617-1.664s-1.688-2.586-1.688-4.43
			c0-1.898,0.561-3.404,1.682-4.518s2.67-1.67,4.646-1.67h0.551V1.264h3.457v5.039h0.527c1.992,0,3.551,0.555,4.676,1.664
			s1.687,2.617,1.687,4.523c0,1.852-0.562,3.33-1.687,4.436s-2.668,1.658-4.629,1.658H107.595z M104.138,15.971V8.916h-0.188
			c-0.914,0-1.631,0.316-2.15,0.949s-0.779,1.508-0.779,2.625c0,1.063,0.264,1.908,0.791,2.537s1.256,0.943,2.186,0.943H104.138z
			 M107.595,8.916v7.055h0.152c0.93,0,1.658-0.314,2.186-0.943s0.791-1.475,0.791-2.537c0-1.117-0.26-1.992-0.779-2.625
			s-1.236-0.949-2.15-0.949H107.595z"/>
		<path d="M122.967,18.736c-2,0-3.572-0.561-4.717-1.682s-1.717-2.643-1.717-4.564c0-1.984,0.594-3.537,1.781-4.658
			s2.793-1.682,4.816-1.682c1.992,0,3.555,0.561,4.688,1.682s1.699,2.604,1.699,4.447c0,1.992-0.584,3.566-1.752,4.723
			S124.998,18.736,122.967,18.736z M123.061,8.986c-0.875,0-1.555,0.301-2.039,0.902s-0.727,1.453-0.727,2.555
			c0,2.305,0.93,3.457,2.789,3.457c1.773,0,2.66-1.184,2.66-3.551C125.744,10.107,124.85,8.986,123.061,8.986z"/>
		<path d="M136.078,17.049h-0.047v6.914h-3.703V6.443h3.703v1.805h0.047c0.914-1.398,2.199-2.098,3.855-2.098
			c1.555,0,2.756,0.533,3.604,1.6s1.271,2.518,1.271,4.354c0,2-0.494,3.605-1.482,4.816s-2.303,1.816-3.943,1.816
			C137.938,18.736,136.836,18.174,136.078,17.049z M135.973,12.127v0.961c0,0.828,0.219,1.504,0.656,2.027s1.012,0.785,1.723,0.785
			c0.844,0,1.498-0.326,1.963-0.979s0.697-1.576,0.697-2.771c0-2.109-0.82-3.164-2.461-3.164c-0.758,0-1.377,0.287-1.857,0.861
			S135.973,11.182,135.973,12.127z"/>
		<path d="M156.713,18.01c-0.836,0.484-2.043,0.727-3.621,0.727c-1.844,0-3.336-0.559-4.477-1.676s-1.711-2.559-1.711-4.324
			c0-2.039,0.611-3.646,1.834-4.822s2.857-1.764,4.904-1.764c1.414,0,2.438,0.188,3.07,0.563v3.141
			c-0.773-0.578-1.637-0.867-2.59-0.867c-1.063,0-1.904,0.311-2.525,0.932s-0.932,1.479-0.932,2.572
			c0,1.063,0.297,1.896,0.891,2.502s1.41,0.908,2.449,0.908c0.922,0,1.824-0.289,2.707-0.867V18.01z"/>
		<path d="M170.973,6.443l-4.875,12.961c-1.172,3.117-2.938,4.676-5.297,4.676c-0.898,0-1.637-0.102-2.215-0.305v-2.953
			c0.492,0.289,1.027,0.434,1.605,0.434c0.953,0,1.617-0.449,1.992-1.348l0.633-1.488l-4.875-11.977h4.102l2.238,7.301
			c0.141,0.453,0.25,0.988,0.328,1.605h0.047c0.07-0.453,0.199-0.98,0.387-1.582l2.262-7.324H170.973z"/>
		<path d="M184.436,18.443h-3.715v-5.016h-4.148v5.016h-3.703v-12h3.703v4.441h4.148V6.443h3.715V18.443z"/>
		<path d="M193.678,18.736c-2,0-3.572-0.561-4.717-1.682s-1.717-2.643-1.717-4.564c0-1.984,0.594-3.537,1.781-4.658
			s2.793-1.682,4.816-1.682c1.992,0,3.555,0.561,4.688,1.682s1.699,2.604,1.699,4.447c0,1.992-0.584,3.566-1.752,4.723
			S195.709,18.736,193.678,18.736z M193.771,8.986c-0.875,0-1.555,0.301-2.039,0.902s-0.727,1.453-0.727,2.555
			c0,2.305,0.93,3.457,2.789,3.457c1.773,0,2.66-1.184,2.66-3.551C196.455,10.107,195.561,8.986,193.771,8.986z"/>
		<path d="M215.016,18.443h-4.441l-3.785-5.859h-0.047v5.859h-3.703v-12h3.703v5.637h0.047l3.691-5.637h4.395l-4.418,5.707
			L215.016,18.443z"/>
	</g>
	<g>
		<path d="M2.984,38.443v-12h6.703c2.859,0,4.289,0.977,4.289,2.93c0,0.695-0.225,1.283-0.674,1.764s-1.033,0.795-1.752,0.943
			c0.883,0.109,1.576,0.416,2.08,0.92s0.756,1.119,0.756,1.846c0,1.086-0.387,1.957-1.16,2.613s-1.836,0.984-3.188,0.984H2.984z
			 M6.688,28.705v2.52h1.816c1.125,0,1.688-0.441,1.688-1.324c0-0.797-0.531-1.195-1.594-1.195H6.688z M6.688,33.404v2.73H8.82
			c1.18,0,1.77-0.477,1.77-1.43c0-0.867-0.605-1.301-1.816-1.301H6.688z"/>
		<path d="M26.396,38.01c-0.836,0.484-2.043,0.727-3.621,0.727c-1.844,0-3.336-0.559-4.477-1.676s-1.711-2.559-1.711-4.324
			c0-2.039,0.611-3.646,1.834-4.822s2.857-1.764,4.904-1.764c1.414,0,2.438,0.188,3.07,0.563v3.141
			c-0.773-0.578-1.637-0.867-2.59-0.867c-1.063,0-1.904,0.311-2.525,0.932s-0.932,1.479-0.932,2.572
			c0,1.063,0.297,1.896,0.891,2.502s1.41,0.908,2.449,0.908c0.922,0,1.824-0.289,2.707-0.867V38.01z"/>
		<path d="M31.104,24.545c-0.625,0-1.137-0.186-1.535-0.557s-0.598-0.826-0.598-1.365c0-0.555,0.199-1.008,0.598-1.359
			s0.91-0.527,1.535-0.527c0.633,0,1.146,0.176,1.541,0.527s0.592,0.805,0.592,1.359c0,0.563-0.197,1.023-0.592,1.383
			S31.737,24.545,31.104,24.545z M32.933,38.443h-3.703v-12h3.703V38.443z"/>
		<path d="M48.048,26.443l-3.961,5.813l3.938,6.188h-4.266l-1.734-3.234c-0.141-0.258-0.309-0.621-0.504-1.09h-0.047
			c-0.117,0.328-0.277,0.68-0.48,1.055l-1.746,3.27h-4.254l4.055-5.977l-3.809-6.023h4.289l1.711,3.363
			c0.227,0.445,0.387,0.82,0.48,1.125h0.047c0.125-0.367,0.293-0.75,0.504-1.148l1.746-3.34H48.048z"/>
		<path d="M66.126,29.256h-3.211v9.188h-3.727v-9.188h-3.234v-2.813h10.172V29.256z"/>
		<path d="M80.397,38.443h-3.363v-7.852c-0.305,0.617-0.633,1.188-0.984,1.711l-4.078,6.141h-3.504v-12h3.387v7.605
			c0.25-0.523,0.523-1.012,0.82-1.465l4.078-6.141h3.645V38.443z"/>
		<path d="M95.501,38.443h-3.715v-9.387h-4.148v9.387h-3.703v-12h11.566V38.443z"/>
		<path d="M100.9,24.545c-0.625,0-1.137-0.186-1.535-0.557s-0.598-0.826-0.598-1.365c0-0.555,0.199-1.008,0.598-1.359
			s0.91-0.527,1.535-0.527c0.633,0,1.146,0.176,1.541,0.527s0.592,0.805,0.592,1.359c0,0.563-0.197,1.023-0.592,1.383
			S101.533,24.545,100.9,24.545z M102.729,38.443h-3.703v-12h3.703V38.443z"/>
		<path d="M106.254,38.443v-12h6.703c2.859,0,4.289,0.977,4.289,2.93c0,0.695-0.225,1.283-0.674,1.764s-1.033,0.795-1.752,0.943
			c0.883,0.109,1.576,0.416,2.08,0.92s0.756,1.119,0.756,1.846c0,1.086-0.387,1.957-1.16,2.613s-1.836,0.984-3.188,0.984H106.254z
			 M109.957,28.705v2.52h1.816c1.125,0,1.688-0.441,1.688-1.324c0-0.797-0.531-1.195-1.594-1.195H109.957z M109.957,33.404v2.73
			h2.133c1.18,0,1.77-0.477,1.77-1.43c0-0.867-0.605-1.301-1.816-1.301H109.957z"/>
	</g>
</g>
</svg>
