<?xml version="1.0" encoding="utf-8"?>
<!-- Generator: Adobe Illustrator 16.0.0, SVG Export Plug-In . SVG Version: 6.00 Build 0)  -->
<!DOCTYPE svg PUBLIC "-//W3C//DTD SVG 1.1//EN" "http://www.w3.org/Graphics/SVG/1.1/DTD/svg11.dtd">
<svg version="1.1" id="Layer_1" xmlns="http://www.w3.org/2000/svg" xmlns:xlink="http://www.w3.org/1999/xlink" x="0px" y="0px"
	 width="274px" height="44px" viewBox="0 0 274 44" enable-background="new 0 0 274 44" xml:space="preserve">
<g>
	<path fill="#FFFFFF" d="M5.135,11.872v5.065H1.823V2.233h5.188c3.705,0,5.558,1.562,5.558,4.686c0,1.477-0.532,2.671-1.595,3.583
		c-1.063,0.913-2.483,1.369-4.261,1.369H5.135z M5.135,4.776v4.583h1.303c1.764,0,2.646-0.772,2.646-2.317
		c0-1.511-0.882-2.266-2.646-2.266H5.135z"/>
	<path fill="#FFFFFF" d="M23.569,12.61h-6.85c0.109,1.524,1.07,2.287,2.882,2.287c1.155,0,2.17-0.273,3.045-0.82v2.338
		c-0.971,0.52-2.231,0.779-3.783,0.779c-1.695,0-3.012-0.47-3.948-1.41s-1.404-2.251-1.404-3.933c0-1.743,0.506-3.124,1.518-4.143
		s2.256-1.528,3.732-1.528c1.531,0,2.715,0.455,3.553,1.364c0.837,0.909,1.256,2.143,1.256,3.702V12.61z M20.565,10.621
		c0-1.504-0.608-2.256-1.825-2.256c-0.52,0-0.969,0.215-1.349,0.646c-0.379,0.431-0.61,0.967-0.692,1.61H20.565z"/>
	<path fill="#FFFFFF" d="M39.44,16.937h-3.024V8.765c-0.068,0.383-0.25,1.029-0.544,1.938l-2.04,6.234h-2.851l-2.041-6.234
		c-0.335-1.025-0.516-1.665-0.543-1.917v8.152h-2.543v-10.5h4.266l1.989,5.988c0.308,0.923,0.479,1.545,0.513,1.866
		c0.048-0.308,0.222-0.923,0.522-1.846l1.969-6.009h4.327V16.937z"/>
	<path fill="#FFFFFF" d="M47.529,17.193c-1.75,0-3.126-0.49-4.128-1.471c-1.001-0.981-1.502-2.313-1.502-3.994
		c0-1.736,0.52-3.095,1.559-4.076c1.039-0.98,2.444-1.471,4.215-1.471c1.743,0,3.11,0.491,4.102,1.471
		c0.991,0.981,1.486,2.278,1.486,3.892c0,1.743-0.511,3.121-1.533,4.132C50.706,16.688,49.307,17.193,47.529,17.193z M47.611,8.662
		c-0.766,0-1.36,0.263-1.784,0.79s-0.636,1.271-0.636,2.235c0,2.017,0.813,3.025,2.44,3.025c1.552,0,2.327-1.036,2.327-3.107
		C49.959,9.643,49.177,8.662,47.611,8.662z"/>
	<path fill="#FFFFFF" d="M65.841,16.937h-3.25v-4.389H58.96v4.389h-3.239v-10.5h3.239v3.886h3.631V6.437h3.25V16.937z"/>
	<path fill="#FFFFFF" d="M76.781,8.898h-2.811v8.039h-3.26V8.898h-2.83V6.437h8.9V8.898z"/>
	<path fill="#FFFFFF" d="M92.835,8.898h-2.811v8.039h-3.26V8.898h-2.83V6.437h8.9V8.898z"/>
	<path fill="#FFFFFF" d="M103.62,16.937h-3.065V15.43h-0.041c-0.704,1.176-1.747,1.764-3.128,1.764
		c-1.019,0-1.819-0.289-2.404-0.867c-0.584-0.577-0.877-1.348-0.877-2.312c0-2.037,1.207-3.213,3.62-3.527l2.851-0.379
		c0-1.148-0.622-1.723-1.866-1.723c-1.251,0-2.44,0.373-3.568,1.118v-2.44c0.451-0.232,1.068-0.438,1.851-0.615
		c0.783-0.178,1.495-0.267,2.139-0.267c2.994,0,4.49,1.494,4.49,4.481V16.937z M100.575,12.671v-0.708l-1.907,0.246
		c-1.053,0.137-1.579,0.612-1.579,1.425c0,0.369,0.128,0.672,0.385,0.907c0.256,0.236,0.603,0.354,1.041,0.354
		c0.607,0,1.104-0.21,1.486-0.63C100.384,13.845,100.575,13.314,100.575,12.671z"/>
	<path fill="#FFFFFF" d="M122.813,16.937h-3.25V8.724h-3.631v8.213h-3.24v-10.5h10.121V16.937z"/>
	<path fill="#FFFFFF" d="M129.177,15.717h-0.041v6.05h-3.24V6.437h3.24v1.579h0.041c0.801-1.224,1.925-1.835,3.374-1.835
		c1.36,0,2.411,0.466,3.153,1.4c0.741,0.933,1.112,2.203,1.112,3.809c0,1.75-0.433,3.155-1.297,4.214
		c-0.865,1.06-2.015,1.589-3.45,1.589C130.804,17.193,129.84,16.701,129.177,15.717z M129.085,11.41v0.841
		c0,0.725,0.191,1.316,0.574,1.774s0.885,0.687,1.508,0.687c0.738,0,1.311-0.285,1.717-0.856c0.407-0.571,0.61-1.379,0.61-2.425
		c0-1.846-0.718-2.769-2.153-2.769c-0.663,0-1.205,0.251-1.625,0.753C129.295,9.918,129.085,10.583,129.085,11.41z"/>
	<path fill="#FFFFFF" d="M144.278,17.193c-1.75,0-3.125-0.49-4.127-1.471c-1.001-0.981-1.502-2.313-1.502-3.994
		c0-1.736,0.52-3.095,1.559-4.076c1.039-0.98,2.443-1.471,4.215-1.471c1.742,0,3.109,0.491,4.102,1.471
		c0.99,0.981,1.486,2.278,1.486,3.892c0,1.743-0.511,3.121-1.533,4.132C147.456,16.688,146.056,17.193,144.278,17.193z
		 M144.36,8.662c-0.766,0-1.36,0.263-1.783,0.79c-0.425,0.526-0.637,1.271-0.637,2.235c0,2.017,0.813,3.025,2.441,3.025
		c1.551,0,2.327-1.036,2.327-3.107C146.709,9.643,145.926,8.662,144.36,8.662z"/>
	<path fill="#FFFFFF" d="M163.422,20.762h-2.646v-3.825h-7.064v3.825h-2.604V14.65h0.933c1.483-2.324,2.267-5.062,2.349-8.213h7.372
		v8.213h1.662V20.762z M158.52,14.65V8.703h-1.609c-0.157,2.215-0.731,4.197-1.723,5.947H158.52z"/>
	<path fill="#FFFFFF" d="M174.391,16.937h-3.065V15.43h-0.041c-0.704,1.176-1.747,1.764-3.128,1.764
		c-1.019,0-1.819-0.289-2.404-0.867c-0.584-0.577-0.877-1.348-0.877-2.312c0-2.037,1.207-3.213,3.62-3.527l2.851-0.379
		c0-1.148-0.622-1.723-1.866-1.723c-1.251,0-2.44,0.373-3.568,1.118v-2.44c0.451-0.232,1.068-0.438,1.851-0.615
		c0.783-0.178,1.495-0.267,2.139-0.267c2.994,0,4.49,1.494,4.49,4.481V16.937z M171.346,12.671v-0.708l-1.907,0.246
		c-1.053,0.137-1.579,0.612-1.579,1.425c0,0.369,0.128,0.672,0.385,0.907c0.256,0.236,0.603,0.354,1.041,0.354
		c0.607,0,1.104-0.21,1.486-0.63C171.154,13.845,171.346,13.314,171.346,12.671z"/>
	<path fill="#FFFFFF" d="M193.699,16.937h-3.825l-3.384-5.25h-0.041v5.25h-3.189v-5.25h-0.041l-3.363,5.25h-3.824l3.988-5.506
		l-3.886-4.994h3.804l3.281,4.973h0.041V6.437h3.189v4.973h0.041l3.281-4.973h3.794l-3.886,4.994L193.699,16.937z"/>
	<path fill="#FFFFFF" d="M8.354,28.897H4.745v8.039h-3.24v-10.5h6.85V28.897z"/>
	<path fill="#FFFFFF" d="M15.182,37.192c-1.75,0-3.126-0.49-4.127-1.471c-1.002-0.98-1.502-2.313-1.502-3.994
		c0-1.736,0.52-3.094,1.559-4.076c1.039-0.98,2.443-1.471,4.214-1.471c1.743,0,3.11,0.49,4.102,1.471
		c0.991,0.982,1.487,2.279,1.487,3.893c0,1.742-0.512,3.119-1.533,4.131C18.358,36.687,16.959,37.192,15.182,37.192z M15.264,28.661
		c-0.766,0-1.36,0.264-1.784,0.791c-0.424,0.525-0.636,1.271-0.636,2.234c0,2.018,0.813,3.025,2.44,3.025
		c1.552,0,2.328-1.035,2.328-3.107C17.612,29.644,16.829,28.661,15.264,28.661z"/>
	<path fill="#FFFFFF" d="M33.309,36.937h-3.261v-8.213h-1.784c-0.376,3.178-0.938,5.363-1.687,6.553
		c-0.749,1.189-1.796,1.783-3.143,1.783c-0.465,0-0.886-0.068-1.262-0.205v-2.205c0.239,0.109,0.492,0.164,0.759,0.164
		c0.643,0,1.176-0.598,1.6-1.793c0.424-1.197,0.807-3.391,1.148-6.584h7.629V36.937z"/>
	<path fill="#FFFFFF" d="M41.397,37.192c-1.75,0-3.126-0.49-4.128-1.471c-1.001-0.98-1.502-2.313-1.502-3.994
		c0-1.736,0.52-3.094,1.559-4.076c1.039-0.98,2.444-1.471,4.215-1.471c1.743,0,3.11,0.49,4.102,1.471
		c0.991,0.982,1.486,2.279,1.486,3.893c0,1.742-0.511,3.119-1.533,4.131C44.574,36.687,43.175,37.192,41.397,37.192z M41.479,28.661
		c-0.766,0-1.36,0.264-1.784,0.791c-0.424,0.525-0.636,1.271-0.636,2.234c0,2.018,0.813,3.025,2.44,3.025
		c1.552,0,2.327-1.035,2.327-3.107C43.827,29.644,43.045,28.661,41.479,28.661z"/>
	<path fill="#FFFFFF" d="M49.589,36.937v-10.5h5.865c2.502,0,3.753,0.855,3.753,2.564c0,0.607-0.197,1.123-0.59,1.543
		c-0.394,0.42-0.904,0.695-1.533,0.824c0.772,0.096,1.379,0.365,1.82,0.807c0.44,0.439,0.661,0.979,0.661,1.613
		c0,0.951-0.339,1.713-1.015,2.287c-0.677,0.574-1.606,0.861-2.789,0.861H49.589z M52.829,28.415v2.205h1.589
		c0.984,0,1.477-0.387,1.477-1.158c0-0.697-0.465-1.047-1.395-1.047H52.829z M52.829,32.528v2.389h1.866
		c1.032,0,1.548-0.418,1.548-1.252c0-0.758-0.529-1.137-1.589-1.137H52.829z"/>
	<path fill="#FFFFFF" d="M67.121,37.192c-1.75,0-3.125-0.49-4.127-1.471c-1.001-0.98-1.502-2.313-1.502-3.994
		c0-1.736,0.52-3.094,1.559-4.076c1.039-0.98,2.443-1.471,4.215-1.471c1.742,0,3.109,0.49,4.102,1.471
		c0.99,0.982,1.486,2.279,1.486,3.893c0,1.742-0.511,3.119-1.533,4.131C70.299,36.687,68.898,37.192,67.121,37.192z M67.203,28.661
		c-0.766,0-1.36,0.264-1.783,0.791c-0.425,0.525-0.637,1.271-0.637,2.234c0,2.018,0.813,3.025,2.441,3.025
		c1.551,0,2.327-1.035,2.327-3.107C69.552,29.644,68.769,28.661,67.203,28.661z"/>
	<path fill="#FFFFFF" d="M85.792,36.937h-3.887l-3.313-5.127h-0.041v5.127h-3.24v-10.5h3.24v4.932h0.041l3.23-4.932h3.846
		l-3.866,4.994L85.792,36.937z"/>
	<path fill="#FFFFFF" d="M102.86,21.146v2.564c-0.328,0.252-0.766,0.42-1.313,0.502c-1.538,0.238-2.458,0.393-2.758,0.461
		c-0.623,0.145-1.075,0.338-1.359,0.584c-0.283,0.246-0.516,0.605-0.697,1.078c-0.181,0.471-0.306,1.045-0.374,1.723H96.4
		c0.779-0.896,1.821-1.344,3.128-1.344c1.489,0,2.65,0.443,3.48,1.328c0.831,0.885,1.246,2.107,1.246,3.666
		c0,1.668-0.51,2.998-1.527,3.994c-1.02,0.994-2.4,1.49-4.143,1.49c-1.826,0-3.214-0.58-4.164-1.742s-1.425-2.844-1.425-5.045
		c0-1.053,0.078-2.004,0.235-2.855s0.394-1.604,0.708-2.256s0.702-1.199,1.164-1.637c0.461-0.437,0.933-0.755,1.415-0.958
		c0.481-0.202,0.955-0.352,1.42-0.451s1.631-0.292,3.496-0.58C102.05,21.512,102.525,21.337,102.86,21.146z M96.308,30.323
		c-0.014,0.164-0.02,0.484-0.02,0.963c0,1.047,0.21,1.879,0.63,2.498c0.421,0.619,1.003,0.928,1.749,0.928
		c0.676,0,1.227-0.26,1.65-0.779s0.636-1.213,0.636-2.082c0-0.881-0.214-1.57-0.641-2.066c-0.428-0.494-1.004-0.742-1.728-0.742
		c-0.473,0-0.918,0.123-1.339,0.369C96.826,29.657,96.513,29.96,96.308,30.323z"/>
	<path fill="#FFFFFF" d="M116.64,36.937h-3.261v-8.213h-1.784c-0.376,3.178-0.938,5.363-1.687,6.553
		c-0.749,1.189-1.797,1.783-3.143,1.783c-0.466,0-0.886-0.068-1.262-0.205v-2.205c0.239,0.109,0.492,0.164,0.759,0.164
		c0.643,0,1.176-0.598,1.6-1.793c0.424-1.197,0.807-3.391,1.148-6.584h7.629V36.937z"/>
	<path fill="#FFFFFF" d="M124.729,37.192c-1.75,0-3.125-0.49-4.127-1.471c-1.001-0.98-1.502-2.313-1.502-3.994
		c0-1.736,0.52-3.094,1.559-4.076c1.039-0.98,2.443-1.471,4.215-1.471c1.742,0,3.109,0.49,4.102,1.471
		c0.99,0.982,1.486,2.279,1.486,3.893c0,1.742-0.511,3.119-1.533,4.131C127.906,36.687,126.506,37.192,124.729,37.192z
		 M124.811,28.661c-0.766,0-1.36,0.264-1.783,0.791c-0.425,0.525-0.637,1.271-0.637,2.234c0,2.018,0.813,3.025,2.441,3.025
		c1.551,0,2.327-1.035,2.327-3.107C127.159,29.644,126.376,28.661,124.811,28.661z"/>
	<path fill="#FFFFFF" d="M143.399,36.937h-3.887L136.2,31.81h-0.041v5.127h-3.24v-10.5h3.24v4.932h0.041l3.23-4.932h3.846
		l-3.866,4.994L143.399,36.937z"/>
	<path fill="#FFFFFF" d="M153.753,36.937h-3.065v-1.508h-0.041c-0.704,1.176-1.747,1.764-3.128,1.764
		c-1.019,0-1.819-0.287-2.404-0.865c-0.584-0.578-0.877-1.35-0.877-2.313c0-2.037,1.207-3.213,3.62-3.527l2.851-0.379
		c0-1.148-0.622-1.723-1.866-1.723c-1.251,0-2.44,0.371-3.568,1.117v-2.441c0.451-0.232,1.068-0.438,1.851-0.615
		c0.783-0.178,1.495-0.266,2.139-0.266c2.994,0,4.49,1.494,4.49,4.48V36.937z M150.708,32.671v-0.707l-1.907,0.246
		c-1.053,0.137-1.579,0.611-1.579,1.426c0,0.369,0.128,0.672,0.385,0.906c0.256,0.236,0.603,0.354,1.041,0.354
		c0.607,0,1.104-0.209,1.486-0.629C150.517,33.845,150.708,33.313,150.708,32.671z"/>
	<path fill="#FFFFFF" d="M174.627,40.761h-2.635v-3.824h-9.168v-10.5h3.24v8.213h3.631v-8.213h3.25v8.213h1.682V40.761z"/>
	<path fill="#FFFFFF" d="M187.299,36.937h-2.943v-6.869c-0.267,0.539-0.554,1.039-0.861,1.496l-3.568,5.373h-3.066v-10.5h2.964
		v6.654c0.219-0.457,0.458-0.885,0.718-1.281l3.568-5.373h3.189V36.937z"/>
	<path fill="#FFFFFF" d="M200.33,36.937h-3.261v-8.213h-1.784c-0.376,3.178-0.938,5.363-1.687,6.553
		c-0.749,1.189-1.797,1.783-3.143,1.783c-0.466,0-0.886-0.068-1.262-0.205v-2.205c0.239,0.109,0.492,0.164,0.759,0.164
		c0.643,0,1.176-0.598,1.6-1.793c0.424-1.197,0.807-3.391,1.148-6.584h7.629V36.937z"/>
	<path fill="#FFFFFF" d="M205.056,24.776c-0.547,0-0.994-0.162-1.343-0.488c-0.349-0.324-0.522-0.723-0.522-1.194
		c0-0.485,0.174-0.882,0.522-1.189s0.796-0.461,1.343-0.461c0.555,0,1.004,0.154,1.349,0.461c0.346,0.308,0.519,0.704,0.519,1.189
		c0,0.493-0.173,0.895-0.519,1.209C206.06,24.618,205.61,24.776,205.056,24.776z M206.655,36.937h-3.24v-10.5h3.24V36.937z"/>
	<path fill="#FFFFFF" d="M219.859,36.937h-3.25v-4.389h-3.631v4.389h-3.24v-10.5h3.24v3.887h3.631v-3.887h3.25V36.937z"/>
	<path fill="#FFFFFF" d="M234.082,40.761h-2.646v-3.824h-7.064v3.824h-2.604v-6.111h0.933c1.483-2.324,2.267-5.061,2.349-8.213
		h7.372v8.213h1.662V40.761z M229.18,34.649v-5.947h-1.609c-0.157,2.215-0.731,4.197-1.723,5.947H229.18z"/>
	<path fill="#FFFFFF" d="M239.595,35.716h-0.041v6.051h-3.24v-15.33h3.24v1.58h0.041c0.801-1.225,1.925-1.836,3.374-1.836
		c1.36,0,2.411,0.467,3.153,1.4c0.741,0.932,1.112,2.201,1.112,3.809c0,1.75-0.433,3.154-1.297,4.215
		c-0.865,1.059-2.015,1.588-3.45,1.588C241.222,37.192,240.258,36.7,239.595,35.716z M239.503,31.409v0.842
		c0,0.725,0.191,1.316,0.574,1.773c0.383,0.459,0.885,0.688,1.508,0.688c0.738,0,1.311-0.285,1.717-0.855
		c0.407-0.572,0.61-1.381,0.61-2.426c0-1.846-0.718-2.77-2.153-2.77c-0.663,0-1.205,0.252-1.625,0.754
		C239.713,29.919,239.503,30.583,239.503,31.409z"/>
	<path fill="#FFFFFF" d="M251.333,24.776c-0.547,0-0.994-0.162-1.343-0.488c-0.349-0.324-0.522-0.723-0.522-1.194
		c0-0.485,0.174-0.882,0.522-1.189s0.796-0.461,1.343-0.461c0.555,0,1.004,0.154,1.349,0.461c0.346,0.308,0.519,0.704,0.519,1.189
		c0,0.493-0.173,0.895-0.519,1.209C252.337,24.618,251.888,24.776,251.333,24.776z M252.933,36.937h-3.24v-10.5h3.24V36.937z"/>
	<path fill="#FFFFFF" d="M256.019,36.937v-10.5h5.865c2.502,0,3.754,0.855,3.754,2.564c0,0.607-0.197,1.123-0.59,1.543
		c-0.394,0.42-0.904,0.695-1.533,0.824c0.772,0.096,1.379,0.365,1.82,0.807c0.44,0.439,0.661,0.979,0.661,1.613
		c0,0.951-0.339,1.713-1.015,2.287c-0.678,0.574-1.607,0.861-2.789,0.861H256.019z M259.259,28.415v2.205h1.59
		c0.984,0,1.477-0.387,1.477-1.158c0-0.697-0.465-1.047-1.395-1.047H259.259z M259.259,32.528v2.389h1.867
		c1.031,0,1.548-0.418,1.548-1.252c0-0.758-0.53-1.137-1.589-1.137H259.259z"/>
	<path fill="#FFFFFF" d="M270.629,37.173c-0.547,0-0.998-0.166-1.354-0.498c-0.355-0.33-0.533-0.732-0.533-1.205
		c0-0.492,0.18-0.895,0.538-1.209c0.359-0.314,0.809-0.473,1.349-0.473c0.547,0,0.994,0.16,1.344,0.479
		c0.348,0.316,0.522,0.719,0.522,1.203c0,0.492-0.173,0.9-0.518,1.221C271.632,37.013,271.183,37.173,270.629,37.173z
		 M272.311,22.233l-0.4,10.131h-2.625l-0.379-10.131H272.311z"/>
</g>
</svg>
